<?xml version="1.0" encoding="UTF-8"?>
<svg xmlns="http://www.w3.org/2000/svg" width="900" height="460">
<rect width="900" height="460" fill="#070f1a"/>
<rect width="900" height="48" fill="#0d1b2a"/>
<text x="18" y="30" fill="#64ffda" font-size="13" font-weight="bold" font-family="Arial">Sistema Almacen Inteligente — CORTEX</text>
<text x="700" y="30" fill="#90caf9" font-size="10" font-family="Arial">admin | Administrador</text>
<rect y="48" width="900" height="26" fill="#061428"/>
<text x="18" y="65" fill="#90caf9" font-size="10" font-family="Arial">URL: /public/cortex</text>
<text x="750" y="65" fill="#4caf50" font-size="10" font-family="Arial">● Operativo</text>
<text x="450" y="135" fill="#ffffff" font-size="15" font-weight="bold" font-family="Arial" text-anchor="middle">Cortex NOC — Centro de Operaciones y Auditoria</text>
<line x1="200" y1="145" x2="700" y2="145" stroke="#1565c0" stroke-width="1.5"/>
<rect x="30" y="170" width="840" height="26" fill="#1565c0"/><text x="38" y="188" fill="#ffffff" font-size="10" font-weight="bold" font-family="Arial">Componente del Sistema</text><text x="248" y="188" fill="#ffffff" font-size="10" font-weight="bold" font-family="Arial">Servidor / Ubicacion</text><text x="458" y="188" fill="#ffffff" font-size="10" font-weight="bold" font-family="Arial">Latencia</text><text x="668" y="188" fill="#ffffff" font-size="10" font-weight="bold" font-family="Arial">Estado</text>
<rect x="30" y="196" width="840" height="26" fill="#0a1929"/><text x="38" y="213" fill="#90caf9" font-size="9.5" font-family="Arial">Base de Datos MySQL</text><text x="248" y="213" fill="#cfd8e3" font-size="9.5" font-family="Arial">sql110.infinityfree.com</text><text x="458" y="213" fill="#cfd8e3" font-size="9.5" font-family="Arial">24 ms</text><text x="668" y="213" fill="#66bb6a" font-size="9.5" font-family="Arial">OK </text><rect x="30" y="222" width="840" height="26" fill="#0d2137"/><text x="38" y="239" fill="#90caf9" font-size="9.5" font-family="Arial">Sesiones en BD</text><text x="248" y="239" fill="#cfd8e3" font-size="9.5" font-family="Arial">tabla: sessions</text><text x="458" y="239" fill="#cfd8e3" font-size="9.5" font-family="Arial">8 ms</text><text x="668" y="239" fill="#66bb6a" font-size="9.5" font-family="Arial">OK </text><rect x="30" y="248" width="840" height="26" fill="#0a1929"/><text x="38" y="265" fill="#90caf9" font-size="9.5" font-family="Arial">Almacenamiento en Disco</text><text x="248" y="265" fill="#cfd8e3" font-size="9.5" font-family="Arial">htdocs/storage/</text><text x="458" y="265" fill="#cfd8e3" font-size="9.5" font-family="Arial">—</text><text x="668" y="265" fill="#66bb6a" font-size="9.5" font-family="Arial">OK </text><rect x="30" y="274" width="840" height="26" fill="#0d2137"/><text x="38" y="291" fill="#90caf9" font-size="9.5" font-family="Arial">Rutas de Aplicacion</text><text x="248" y="291" fill="#cfd8e3" font-size="9.5" font-family="Arial">Artisan Route List</text><text x="458" y="291" fill="#cfd8e3" font-size="9.5" font-family="Arial">—</text><text x="668" y="291" fill="#66bb6a" font-size="9.5" font-family="Arial">OK </text><rect x="30" y="300" width="840" height="26" fill="#0a1929"/><text x="38" y="317" fill="#90caf9" font-size="9.5" font-family="Arial">Modelos Eloquent</text><text x="248" y="317" fill="#cfd8e3" font-size="9.5" font-family="Arial">9 modelos validados</text><text x="458" y="317" fill="#cfd8e3" font-size="9.5" font-family="Arial">—</text><text x="668" y="317" fill="#66bb6a" font-size="9.5" font-family="Arial">OK </text>
<text x="18" y="452" fill="#546e7a" font-size="8" font-family="Arial">IESTP Luciano Castillo Colonna — 2026</text>
</svg>