<?xml version="1.0" encoding="UTF-8"?>
<svg xmlns="http://www.w3.org/2000/svg" width="900" height="460">
<rect width="900" height="460" fill="#070f1a"/>
<rect width="900" height="48" fill="#0d1b2a"/>
<text x="18" y="30" fill="#64ffda" font-size="13" font-weight="bold" font-family="Arial">Sistema Almacen Inteligente — CORTEX</text>
<text x="700" y="30" fill="#90caf9" font-size="10" font-family="Arial">admin | Administrador</text>
<rect y="48" width="900" height="26" fill="#061428"/>
<text x="18" y="65" fill="#90caf9" font-size="10" font-family="Arial">URL: /public/trabajadores</text>
<text x="750" y="65" fill="#4caf50" font-size="10" font-family="Arial">● Operativo</text>
<text x="450" y="135" fill="#ffffff" font-size="15" font-weight="bold" font-family="Arial" text-anchor="middle">Gestion de Personal — Expediente de Trabajadores</text>
<line x1="200" y1="145" x2="700" y2="145" stroke="#1565c0" stroke-width="1.5"/>
<rect x="30" y="170" width="840" height="26" fill="#1565c0"/><text x="38" y="188" fill="#ffffff" font-size="10" font-weight="bold" font-family="Arial">DNI</text><text x="206" y="188" fill="#ffffff" font-size="10" font-weight="bold" font-family="Arial">Apellidos y Nombres</text><text x="374" y="188" fill="#ffffff" font-size="10" font-weight="bold" font-family="Arial">Cargo</text><text x="542" y="188" fill="#ffffff" font-size="10" font-weight="bold" font-family="Arial">Almacen Asignado</text><text x="710" y="188" fill="#ffffff" font-size="10" font-weight="bold" font-family="Arial">Estado</text>
<rect x="30" y="196" width="840" height="26" fill="#0a1929"/><text x="38" y="213" fill="#90caf9" font-size="9.5" font-family="Arial">12345678</text><text x="206" y="213" fill="#cfd8e3" font-size="9.5" font-family="Arial">Perez Torres, Juan</text><text x="374" y="213" fill="#cfd8e3" font-size="9.5" font-family="Arial">Tecnico A</text><text x="542" y="213" fill="#cfd8e3" font-size="9.5" font-family="Arial">Almacen A</text><text x="710" y="213" fill="#66bb6a" font-size="9.5" font-family="Arial">Activo</text><rect x="30" y="222" width="840" height="26" fill="#0d2137"/><text x="38" y="239" fill="#90caf9" font-size="9.5" font-family="Arial">87654321</text><text x="206" y="239" fill="#cfd8e3" font-size="9.5" font-family="Arial">Lopez Diaz, Maria</text><text x="374" y="239" fill="#cfd8e3" font-size="9.5" font-family="Arial">Operario</text><text x="542" y="239" fill="#cfd8e3" font-size="9.5" font-family="Arial">Almacen B</text><text x="710" y="239" fill="#66bb6a" font-size="9.5" font-family="Arial">Activo</text><rect x="30" y="248" width="840" height="26" fill="#0a1929"/><text x="38" y="265" fill="#90caf9" font-size="9.5" font-family="Arial">11223344</text><text x="206" y="265" fill="#cfd8e3" font-size="9.5" font-family="Arial">Ruiz Castro, Carlos</text><text x="374" y="265" fill="#cfd8e3" font-size="9.5" font-family="Arial">Supervisor</text><text x="542" y="265" fill="#cfd8e3" font-size="9.5" font-family="Arial">Almacen C</text><text x="710" y="265" fill="#66bb6a" font-size="9.5" font-family="Arial">Activo</text><rect x="30" y="274" width="840" height="26" fill="#0d2137"/><text x="38" y="291" fill="#90caf9" font-size="9.5" font-family="Arial">55667788</text><text x="206" y="291" fill="#cfd8e3" font-size="9.5" font-family="Arial">Flores Medina, Ana</text><text x="374" y="291" fill="#cfd8e3" font-size="9.5" font-family="Arial">Operario</text><text x="542" y="291" fill="#cfd8e3" font-size="9.5" font-family="Arial">Almacen A</text><text x="710" y="291" fill="#66bb6a" font-size="9.5" font-family="Arial">Activo</text>
<text x="18" y="452" fill="#546e7a" font-size="8" font-family="Arial">IESTP Luciano Castillo Colonna — 2026</text>
</svg>